<svg width="274" height="74" viewBox="0 0 274 74" fill="none" xmlns="http://www.w3.org/2000/svg">
<g filter="url(#filter0_ii_7_24)">
<path d="M0 37C0 16.5655 16.5655 0 37 0H237C257.435 0 274 16.5655 274 37V37C274 57.4345 257.435 74 237 74H37C16.5655 74 0 57.4345 0 37V37Z" fill="#A158E1"/>
<path d="M83.9995 49.083H80V25.3964H83.9995V49.083ZM109.238 49.083H104.994L93.8116 31.6731C93.5287 31.2327 93.2947 30.7757 93.1097 30.3022H93.0117C93.0988 30.8087 93.1423 31.8934 93.1423 33.5562V49.083H89.3877V25.3964H93.9096L104.716 42.3933C105.174 43.098 105.468 43.5826 105.598 43.8469H105.663C105.554 43.2191 105.5 42.1565 105.5 40.6588V25.3964H109.238V49.083ZM118.642 49.083H114.643V25.3964H118.642V49.083ZM140.356 48.0919C138.592 49.0169 136.399 49.4794 133.777 49.4794C130.381 49.4794 127.66 48.3948 125.614 46.2254C123.568 44.0561 122.545 41.2095 122.545 37.6857C122.545 33.8975 123.694 30.8363 125.99 28.5017C128.297 26.1672 131.208 25 134.723 25C136.987 25 138.864 25.3248 140.356 25.9745V29.8727C138.777 28.9257 137.035 28.4522 135.132 28.4522C132.595 28.4522 130.539 29.2725 128.96 30.9133C127.393 32.5541 126.61 34.7455 126.61 37.4874C126.61 40.0973 127.344 42.1786 128.814 43.7312C130.283 45.2728 132.215 46.0437 134.61 46.0437C136.818 46.0437 138.733 45.5151 140.356 44.458V48.0919ZM148.388 49.083H144.389V25.3964H148.388V49.083ZM173.006 49.083H168.745L166.64 43.054H157.433L155.409 49.083H151.164L159.931 25.3964H164.305L173.006 49.083ZM165.611 39.8495L162.363 30.4013C162.265 30.093 162.161 29.5974 162.053 28.9147H161.988C161.89 29.5423 161.781 30.0379 161.661 30.4013L158.445 39.8495H165.611ZM193.936 49.083H189.398L185.659 42.7401C185.322 42.1565 184.99 41.661 184.664 41.2536C184.348 40.835 184.021 40.4937 183.684 40.2294C183.358 39.9651 182.998 39.7724 182.607 39.6513C182.215 39.5301 181.774 39.4695 181.284 39.4695H179.717V49.083H175.848V25.3964H183.553C184.652 25.3964 185.665 25.5286 186.589 25.7929C187.515 26.0571 188.32 26.4591 189.006 26.9986C189.691 27.5272 190.225 28.1934 190.605 28.9973C190.997 29.7901 191.194 30.7206 191.194 31.7888C191.194 32.6257 191.068 33.3966 190.817 34.1013C190.578 34.7951 190.23 35.4172 189.773 35.9679C189.327 36.5074 188.782 36.9699 188.141 37.3553C187.51 37.7407 186.796 38.0381 186.002 38.2473V38.3133C186.426 38.5556 186.796 38.8254 187.112 39.1227C187.428 39.4091 187.727 39.7063 188.01 40.0147C188.293 40.323 188.57 40.6754 188.843 41.0719C189.126 41.4573 189.435 41.9087 189.773 42.4263L193.936 49.083ZM179.717 28.5843V36.2816H182.949C183.548 36.2816 184.097 36.1881 184.598 36.0008C185.11 35.8136 185.551 35.5438 185.921 35.1915C186.29 34.839 186.579 34.4096 186.786 33.903C186.993 33.3966 187.096 32.8294 187.096 32.2017C187.096 31.0675 186.742 30.1811 186.034 29.5423C185.327 28.9037 184.31 28.5843 182.982 28.5843H179.717Z" fill="white"/>
</g>
<defs>
<filter id="filter0_ii_7_24" x="-8" y="-8" width="290" height="90" filterUnits="userSpaceOnUse" color-interpolation-filters="sRGB">
<feFlood flood-opacity="0" result="BackgroundImageFix"/>
<feBlend mode="normal" in="SourceGraphic" in2="BackgroundImageFix" result="shape"/>
<feColorMatrix in="SourceAlpha" type="matrix" values="0 0 0 0 0 0 0 0 0 0 0 0 0 0 0 0 0 0 127 0" result="hardAlpha"/>
<feOffset dx="8" dy="8"/>
<feGaussianBlur stdDeviation="8"/>
<feComposite in2="hardAlpha" operator="arithmetic" k2="-1" k3="1"/>
<feColorMatrix type="matrix" values="0 0 0 0 0 0 0 0 0 0 0 0 0 0 0 0 0 0 1 0"/>
<feBlend mode="normal" in2="shape" result="effect1_innerShadow_7_24"/>
<feColorMatrix in="SourceAlpha" type="matrix" values="0 0 0 0 0 0 0 0 0 0 0 0 0 0 0 0 0 0 127 0" result="hardAlpha"/>
<feOffset dx="-8" dy="-8"/>
<feGaussianBlur stdDeviation="8"/>
<feComposite in2="hardAlpha" operator="arithmetic" k2="-1" k3="1"/>
<feColorMatrix type="matrix" values="0 0 0 0 0 0 0 0 0 0 0 0 0 0 0 0 0 0 1 0"/>
<feBlend mode="normal" in2="effect1_innerShadow_7_24" result="effect2_innerShadow_7_24"/>
</filter>
</defs>
</svg>
