<svg width="355" height="155" viewBox="0 0 355 155" fill="none" xmlns="http://www.w3.org/2000/svg">
<g filter="url(#filter0_dd_7_20)">
<path d="M40 77C40 56.5655 56.5655 40 77 40H277C297.435 40 314 56.5655 314 77V77C314 97.4345 297.435 114 277 114H77C56.5655 114 40 97.4345 40 77V77Z" fill="#A158E1"/>
<path d="M124 87.083H120V63.3964H124V87.083ZM149.238 87.083H144.994L133.812 69.6731C133.529 69.2327 133.295 68.7757 133.11 68.3022H133.012C133.099 68.8087 133.142 69.8934 133.142 71.5562V87.083H129.388V63.3964H133.91L144.716 80.3933C145.174 81.098 145.468 81.5826 145.598 81.8469H145.663C145.554 81.2191 145.5 80.1565 145.5 78.6588V63.3964H149.238V87.083ZM158.642 87.083H154.643V63.3964H158.642V87.083ZM180.356 86.0919C178.592 87.0169 176.399 87.4794 173.777 87.4794C170.381 87.4794 167.66 86.3948 165.614 84.2254C163.568 82.0561 162.545 79.2095 162.545 75.6857C162.545 71.8975 163.694 68.8363 165.99 66.5017C168.297 64.1672 171.208 63 174.723 63C176.987 63 178.864 63.3248 180.356 63.9745V67.8727C178.777 66.9257 177.035 66.4522 175.132 66.4522C172.595 66.4522 170.539 67.2725 168.96 68.9133C167.393 70.5541 166.61 72.7455 166.61 75.4874C166.61 78.0973 167.344 80.1786 168.814 81.7312C170.283 83.2728 172.215 84.0437 174.61 84.0437C176.818 84.0437 178.733 83.5151 180.356 82.458V86.0919ZM188.388 87.083H184.389V63.3964H188.388V87.083ZM213.006 87.083H208.745L206.64 81.054H197.433L195.409 87.083H191.164L199.931 63.3964H204.305L213.006 87.083ZM205.611 77.8495L202.363 68.4013C202.265 68.093 202.161 67.5974 202.053 66.9147H201.988C201.89 67.5423 201.781 68.0379 201.661 68.4013L198.445 77.8495H205.611ZM233.936 87.083H229.398L225.659 80.7401C225.322 80.1565 224.99 79.661 224.664 79.2536C224.348 78.835 224.021 78.4937 223.684 78.2294C223.358 77.9651 222.998 77.7724 222.607 77.6513C222.215 77.5301 221.774 77.4695 221.284 77.4695H219.717V87.083H215.848V63.3964H223.553C224.652 63.3964 225.665 63.5286 226.589 63.7929C227.515 64.0571 228.32 64.4591 229.006 64.9986C229.691 65.5272 230.225 66.1934 230.605 66.9973C230.997 67.7901 231.194 68.7206 231.194 69.7888C231.194 70.6257 231.068 71.3966 230.817 72.1013C230.578 72.7951 230.23 73.4172 229.773 73.9679C229.327 74.5074 228.782 74.9699 228.141 75.3553C227.51 75.7407 226.796 76.0381 226.002 76.2473V76.3133C226.426 76.5556 226.796 76.8254 227.112 77.1227C227.428 77.4091 227.727 77.7063 228.01 78.0147C228.293 78.323 228.57 78.6754 228.843 79.0719C229.126 79.4573 229.435 79.9087 229.773 80.4263L233.936 87.083ZM219.717 66.5843V74.2816H222.949C223.548 74.2816 224.097 74.1881 224.598 74.0008C225.11 73.8136 225.551 73.5438 225.921 73.1915C226.29 72.839 226.579 72.4096 226.786 71.903C226.993 71.3966 227.096 70.8294 227.096 70.2017C227.096 69.0675 226.742 68.1811 226.034 67.5423C225.327 66.9037 224.31 66.5843 222.982 66.5843H219.717Z" fill="white"/>
</g>
<defs>
<filter id="filter0_dd_7_20" x="0" y="0" width="355" height="155" filterUnits="userSpaceOnUse" color-interpolation-filters="sRGB">
<feFlood flood-opacity="0" result="BackgroundImageFix"/>
<feColorMatrix in="SourceAlpha" type="matrix" values="0 0 0 0 0 0 0 0 0 0 0 0 0 0 0 0 0 0 127 0" result="hardAlpha"/>
<feOffset dx="12" dy="12"/>
<feGaussianBlur stdDeviation="14.5"/>
<feComposite in2="hardAlpha" operator="out"/>
<feColorMatrix type="matrix" values="0 0 0 0 0 0 0 0 0 0 0 0 0 0 0 0 0 0 1 0"/>
<feBlend mode="normal" in2="BackgroundImageFix" result="effect1_dropShadow_7_20"/>
<feColorMatrix in="SourceAlpha" type="matrix" values="0 0 0 0 0 0 0 0 0 0 0 0 0 0 0 0 0 0 127 0" result="hardAlpha"/>
<feOffset dx="-12" dy="-12"/>
<feGaussianBlur stdDeviation="14"/>
<feComposite in2="hardAlpha" operator="out"/>
<feColorMatrix type="matrix" values="0 0 0 0 0 0 0 0 0 0 0 0 0 0 0 0 0 0 1 0"/>
<feBlend mode="normal" in2="effect1_dropShadow_7_20" result="effect2_dropShadow_7_20"/>
<feBlend mode="normal" in="SourceGraphic" in2="effect2_dropShadow_7_20" result="shape"/>
</filter>
</defs>
</svg>
